<svg width="34" height="34" viewBox="0 0 34 34" fill="none" xmlns="http://www.w3.org/2000/svg">
<path d="M33.7096 16.8604C33.7096 25.3756 27.3995 32.4153 19.2021 33.5577C18.4356 33.664 17.6514 33.7195 16.8554 33.7195C15.9366 33.7195 15.0343 33.6463 14.1556 33.5045C6.12945 32.2121 0 25.2515 0 16.8604C0 7.54888 7.54666 0 16.8542 0C26.1618 0 33.7096 7.54888 33.7096 16.8604Z" fill="#1877F2"/>
<path d="M19.2021 13.5372V17.21H23.7442L23.025 22.1576H19.2021V33.5565C18.4356 33.6628 17.6514 33.7183 16.8554 33.7183C15.9366 33.7183 15.0343 33.6451 14.1556 33.5033V22.1576H9.96655V17.21H14.1556V12.7161C14.1556 9.92814 16.4149 7.66702 19.2032 7.66702V7.66938C19.2115 7.66938 19.2186 7.66702 19.2269 7.66702H23.7454V11.9459H20.7929C19.9154 11.9459 19.2032 12.6583 19.2032 13.536L19.2021 13.5372Z" fill="white"/>
</svg>
