<svg width="34" height="35" viewBox="0 0 34 35" fill="none" xmlns="http://www.w3.org/2000/svg">
<path d="M17.204 14.0762V20.739H26.463C26.0564 22.8817 24.8363 24.696 23.0065 25.916L28.59 30.2483C31.8432 27.2455 33.72 22.8349 33.72 17.5955C33.72 16.3755 33.6105 15.2024 33.4072 14.0764L17.204 14.0762Z" fill="#4285F4"/>
<path d="M7.56225 20.4789L6.30295 21.4429L1.8454 24.915C4.67628 30.5297 10.4784 34.4086 17.2036 34.4086C21.8487 34.4086 25.7434 32.8758 28.59 30.2483L23.0065 25.916C21.4737 26.9482 19.5183 27.5739 17.2036 27.5739C12.7305 27.5739 8.93008 24.5553 7.56928 20.4888L7.56225 20.4789Z" fill="#34A853"/>
<path d="M1.84541 9.49363C0.67246 11.8083 0 14.4202 0 17.2042C0 19.9881 0.672449 22.6003 1.8454 24.915C1.8454 24.9305 7.56984 20.4729 7.56984 20.4729C7.22576 19.4406 7.02238 18.3459 7.02238 17.204C7.02238 16.0621 7.22576 14.9673 7.56984 13.9351L1.84541 9.49363Z" fill="#FBBC05"/>
<path d="M17.204 6.85042C19.7377 6.85042 21.9899 7.72625 23.7885 9.41542L28.7151 4.48881C25.7279 1.70489 21.8492 0 17.204 0C10.4787 0 4.67629 3.86312 1.84541 9.49363L7.56984 13.9351C8.93046 9.86859 12.7309 6.85042 17.204 6.85042Z" fill="#EA4335"/>
</svg>
