<svg width="33" height="33" viewBox="0 0 33 33" fill="none" xmlns="http://www.w3.org/2000/svg">
<path d="M19.437 12.309C19.3547 12.309 19.2731 12.3252 19.1971 12.3567C19.121 12.3882 19.0519 12.4344 18.9936 12.4926C18.9354 12.5509 18.8892 12.62 18.8577 12.6961C18.8262 12.7721 18.81 12.8537 18.81 12.936V15.6915L16.5 12.6225C16.4424 12.5291 16.3625 12.4515 16.2674 12.3968C16.1724 12.3421 16.0652 12.3119 15.9555 12.309C15.8732 12.309 15.7916 12.3252 15.7156 12.3567C15.6395 12.3882 15.5704 12.4344 15.5121 12.4926C15.4539 12.5509 15.4077 12.62 15.3762 12.6961C15.3447 12.7721 15.3285 12.8537 15.3285 12.936V17.622C15.3285 17.7043 15.3447 17.7859 15.3762 17.8619C15.4077 17.938 15.4539 18.0071 15.5121 18.0654C15.5704 18.1236 15.6395 18.1698 15.7156 18.2013C15.7916 18.2328 15.8732 18.249 15.9555 18.249C16.0378 18.249 16.1194 18.2328 16.1954 18.2013C16.2715 18.1698 16.3406 18.1236 16.3989 18.0654C16.4571 18.0071 16.5033 17.938 16.5348 17.8619C16.5663 17.7859 16.5825 17.7043 16.5825 17.622V14.85L18.876 18.0015C18.9344 18.0894 19.0221 18.1537 19.1235 18.183C19.1996 18.2001 19.2784 18.2001 19.3545 18.183C19.4269 18.2093 19.504 18.22 19.5808 18.2143C19.6576 18.2086 19.7323 18.1867 19.8 18.15L19.965 18.0345C20.0808 17.915 20.1459 17.7554 20.1465 17.589V12.936C20.1473 12.8462 20.1288 12.7573 20.0922 12.6754C20.0557 12.5934 20.002 12.5202 19.9347 12.4607C19.8675 12.4013 19.7882 12.357 19.7023 12.3308C19.6165 12.3046 19.526 12.2972 19.437 12.309ZM11.88 16.9455H10.131V12.936C10.131 12.7697 10.0649 12.6102 9.94736 12.4926C9.82977 12.3751 9.67029 12.309 9.504 12.309C9.33771 12.309 9.17823 12.3751 9.06064 12.4926C8.94306 12.6102 8.877 12.7697 8.877 12.936V17.622C8.877 17.7883 8.94306 17.9478 9.06064 18.0654C9.17823 18.1829 9.33771 18.249 9.504 18.249H11.88C12.0478 18.2491 12.2091 18.1835 12.3293 18.0664C12.4495 17.9493 12.5192 17.7898 12.5235 17.622C12.528 17.5348 12.5147 17.4475 12.4843 17.3656C12.454 17.2837 12.4073 17.2088 12.3471 17.1455C12.2869 17.0822 12.2144 17.0318 12.1341 16.9974C12.0538 16.9631 11.9674 16.9454 11.88 16.9455ZM13.7115 12.309C13.5437 12.3089 13.3824 12.3745 13.2622 12.4916C13.142 12.6087 13.0723 12.7682 13.068 12.936V17.622C13.0723 17.7898 13.142 17.9493 13.2622 18.0664C13.3824 18.1835 13.5437 18.2491 13.7115 18.249C13.8778 18.249 14.0373 18.1829 14.1549 18.0654C14.2724 17.9478 14.3385 17.7883 14.3385 17.622V12.936C14.3385 12.7697 14.2724 12.6102 14.1549 12.4926C14.0373 12.3751 13.8778 12.309 13.7115 12.309ZM26.2515 0H6.7485C4.96003 0.00435684 3.24605 0.716756 1.9814 1.9814C0.716756 3.24605 0.00435684 4.96003 0 6.7485V26.2515C0.00435684 28.04 0.716756 29.754 1.9814 31.0186C3.24605 32.2832 4.96003 32.9956 6.7485 33H26.2515C28.04 32.9956 29.754 32.2832 31.0186 31.0186C32.2832 29.754 32.9956 28.04 33 26.2515V6.7485C32.9956 4.96003 32.2832 3.24605 31.0186 1.9814C29.754 0.716756 28.04 0.00435684 26.2515 0ZM26.763 20.262C26.698 20.3603 26.6264 20.4541 26.5485 20.5425C26.155 21.0267 25.7127 21.469 25.2285 21.8625C21.9285 24.948 16.3845 28.644 15.642 28.0665C14.8995 27.489 16.698 25.1625 14.7675 24.7665C14.6305 24.7838 14.492 24.7838 14.355 24.7665C8.679 23.9745 4.455 19.998 4.455 15.2295C4.455 9.867 9.8835 5.5275 16.566 5.5275C23.2485 5.5275 28.677 9.867 28.677 15.2295C28.6197 17.0738 27.9458 18.8458 26.763 20.262ZM23.9415 12.3255H21.45C21.2837 12.3255 21.1242 12.3916 21.0066 12.5091C20.8891 12.6267 20.823 12.7862 20.823 12.9525V17.6385C20.823 17.7208 20.8392 17.8024 20.8707 17.8784C20.9022 17.9545 20.9484 18.0236 21.0066 18.0819C21.0649 18.1401 21.134 18.1863 21.2101 18.2178C21.2861 18.2493 21.3677 18.2655 21.45 18.2655H23.892C23.9743 18.2655 24.0559 18.2493 24.1319 18.2178C24.208 18.1863 24.2771 18.1401 24.3354 18.0819C24.3936 18.0236 24.4398 17.9545 24.4713 17.8784C24.5028 17.8024 24.519 17.7208 24.519 17.6385C24.519 17.4722 24.4529 17.3127 24.3354 17.1951C24.2178 17.0776 24.0583 17.0115 23.892 17.0115H22.1925V16.0215H23.9415C24.1093 16.0172 24.2688 15.9475 24.3859 15.8273C24.503 15.7071 24.5686 15.5458 24.5685 15.378C24.5685 15.2117 24.5024 15.0522 24.3849 14.9346C24.2673 14.8171 24.1078 14.751 23.9415 14.751H22.1925V13.7445H23.9415C24.1078 13.7445 24.2673 13.6784 24.3849 13.5609C24.5024 13.4433 24.5685 13.2838 24.5685 13.1175C24.5944 13.0227 24.5977 12.923 24.578 12.8267C24.5584 12.7304 24.5163 12.64 24.4553 12.5629C24.3943 12.4858 24.316 12.4242 24.2267 12.3829C24.1375 12.3417 24.0398 12.322 23.9415 12.3255Z" fill="#17BF0C"/>
</svg>
