<svg width="33" height="33" viewBox="0 0 33 33" fill="none" xmlns="http://www.w3.org/2000/svg">
<g clip-path="url(#clip0_133_2847)">
<path d="M25.3 0H7.7C3.44741 0 0 3.44741 0 7.7V25.3C0 29.5526 3.44741 33 7.7 33H25.3C29.5526 33 33 29.5526 33 25.3V7.7C33 3.44741 29.5526 0 25.3 0Z" fill="url(#paint0_linear_133_2847)"/>
<mask id="mask0_133_2847" style="mask-type:luminance" maskUnits="userSpaceOnUse" x="0" y="0" width="33" height="33">
<path d="M25.3 0H7.7C3.44741 0 0 3.44741 0 7.7V25.3C0 29.5526 3.44741 33 7.7 33H25.3C29.5526 33 33 29.5526 33 25.3V7.7C33 3.44741 29.5526 0 25.3 0Z" fill="white"/>
</mask>
<g mask="url(#mask0_133_2847)">
<path fill-rule="evenodd" clip-rule="evenodd" d="M12.325 20.4857L14.8529 17.9578L16.7975 19.9023C17.9817 21.0865 18.9365 21.4579 20.6866 20.0968C21.0755 19.7079 21.7561 19.2217 22.5339 19.6106L26.2285 22.1385C27.298 23.0136 27.3853 23.4914 27.1036 24.1803C25.3546 28.4552 19.8115 27.7777 12.325 20.4857ZM12.325 20.4857C5.03299 12.9992 4.35551 7.45606 8.63039 5.70714C9.31934 5.42537 9.79712 5.51268 10.6722 6.58218L13.2001 10.2768C13.589 11.0546 13.1028 11.7352 12.7139 12.1241C11.3528 13.8742 11.7242 14.829 12.9084 16.0132L14.8529 17.9578L12.325 20.4857Z" fill="white"/>
</g>
</g>
<defs>
<linearGradient id="paint0_linear_133_2847" x1="1650" y1="0" x2="1650" y2="3300" gradientUnits="userSpaceOnUse">
<stop stop-color="#17BF0C"/>
</linearGradient>
<clipPath id="clip0_133_2847">
<rect width="33" height="33" fill="white"/>
</clipPath>
</defs>
</svg>
